<svg version="1.1" id="Layer_1" xmlns="http://www.w3.org/2000/svg" xmlns:xlink="http://www.w3.org/1999/xlink" x="0px" y="0px"
	 width="100%" viewBox="0 0 1024 1024" enable-background="new 0 0 1024 1024" xml:space="preserve">
<path fill="#000000" opacity="1.000000" stroke="none" 
	d="
M180.170929,540.007690 
	C165.010147,533.493225 149.363449,528.880310 135.945038,519.599121 
	C118.169884,507.304504 112.201721,486.593079 120.524406,467.248108 
	C121.850533,464.165710 123.530540,461.332245 125.818428,458.847443 
	C132.694489,451.379456 140.136780,444.547485 149.151459,437.548767 
	C148.271469,442.237549 147.628571,445.826111 146.921402,449.401978 
	C144.146851,463.431763 149.974686,477.263367 162.203857,484.571533 
	C175.129211,492.295685 189.595108,496.629181 203.309631,502.621613 
	C212.460571,506.620087 221.840393,510.122620 230.587402,514.984253 
	C242.041397,521.350342 251.535095,529.772217 254.029190,543.242676 
	C256.724548,557.800293 252.133591,570.875244 243.381897,582.555725 
	C229.784119,600.703796 211.180237,607.720276 189.000870,607.645630 
	C169.599686,607.580322 153.124207,598.468140 135.933640,591.566345 
	C127.474678,588.170105 119.124794,584.383423 110.816566,579.628845 
	C113.381943,569.314209 115.815826,559.061523 119.123596,549.232178 
	C121.374763,548.782654 122.752182,549.871948 124.217308,550.578064 
	C141.025970,558.678101 158.203461,565.934814 175.713562,572.341553 
	C185.358994,575.870605 195.171875,579.434326 205.822495,576.731445 
	C211.590088,575.267761 216.035126,572.184204 217.096771,566.093933 
	C218.022903,560.780945 214.783371,557.015381 210.959503,553.789856 
	C207.590591,550.948120 203.563934,549.311035 199.559662,547.678650 
	C193.242950,545.103577 186.871811,542.662048 180.170929,540.007690 
z"/>
<path fill="#000000" opacity="1.000000" stroke="none" 
	d="
M607.846802,545.837524 
	C588.322205,565.913513 553.581177,565.413147 534.989746,551.178223 
	C523.264587,542.200562 517.439453,530.098938 515.768555,515.851013 
	C514.599182,505.880676 515.345642,495.974701 518.695374,486.357483 
	C525.561829,466.643524 543.349182,454.179657 564.281006,453.546082 
	C581.209839,453.033630 596.387939,456.591492 608.277466,469.384796 
	C616.634521,478.377075 620.740051,489.250702 621.360718,501.490631 
	C621.958191,513.273987 620.962646,524.730103 615.238647,535.387390 
	C613.250732,539.088562 610.775757,542.393555 607.846802,545.837524 
M586.696899,535.235107 
	C598.848145,523.987366 602.440369,505.688141 595.171204,490.349030 
	C590.408203,480.298431 582.481445,474.170837 571.146729,473.336945 
	C558.859741,472.432983 549.485718,477.413666 543.287964,488.101257 
	C539.148254,495.239899 537.686218,503.097290 538.443054,511.183472 
	C539.535889,522.859985 544.015076,532.939331 555.026917,538.505188 
	C565.791626,543.946045 576.294128,542.486938 586.696899,535.235107 
z"/>
<path fill="#000000" opacity="1.000000" stroke="none" 
	d="
M796.369263,549.499023 
	C786.497253,556.089111 775.746887,558.717773 764.443970,559.037842 
	C753.963989,559.334656 743.466370,558.969543 732.981934,559.172668 
	C728.811096,559.253418 727.566528,557.675598 727.583313,553.614868 
	C727.710327,522.815918 727.733643,492.015747 727.564514,461.217163 
	C727.540222,456.788788 728.927368,455.382477 733.277161,455.589722 
	C747.218018,456.254089 761.211731,454.656464 775.135193,456.609467 
	C795.964478,459.531128 810.911377,473.311768 815.949341,494.368408 
	C821.091248,515.859680 813.608215,537.164062 796.369263,549.499023 
M751.244995,538.362549 
	C758.182312,539.638306 765.231445,539.665161 772.007935,538.127075 
	C786.005493,534.950012 792.182800,524.899658 794.444824,511.437103 
	C796.944824,496.558258 787.313904,480.591370 772.895935,476.319824 
	C767.833923,474.820099 762.685364,475.263733 757.556519,475.212769 
	C750.083496,475.138519 750.067993,475.195892 750.060425,482.446014 
	C750.043335,498.905487 750.035950,515.364929 750.043518,531.824402 
	C750.044434,533.806396 749.809753,535.824463 751.244995,538.362549 
z"/>
<path fill="#000000" opacity="1.000000" stroke="none" 
	d="
M635.653320,548.959961 
	C635.654663,519.648254 635.772888,490.828308 635.547729,462.011047 
	C635.508118,456.953125 636.963074,455.386566 642.016663,455.548889 
	C652.999939,455.901733 664.002258,455.666199 674.996826,455.660339 
	C680.544983,455.657349 685.888794,456.762695 691.100281,458.590393 
	C707.026123,464.175751 712.730286,477.571472 711.650330,491.945374 
	C710.500305,507.250977 706.821716,512.280212 692.976379,520.585510 
	C700.359619,532.990417 707.758301,545.421204 715.839233,558.998413 
	C707.166504,558.998413 699.923218,559.039490 692.680908,558.973511 
	C690.489136,558.953552 689.726318,557.067017 688.825500,555.479553 
	C683.484558,546.067566 678.181641,536.633789 672.795410,527.247803 
	C670.840210,523.840515 662.927368,521.803772 659.638123,523.712708 
	C657.783813,524.788879 658.301208,526.620239 658.292236,528.196594 
	C658.242737,536.858643 658.154602,545.523804 658.338562,554.182373 
	C658.417358,557.887024 656.992615,559.299316 653.364685,559.133972 
	C649.708130,558.967285 646.036804,559.149109 642.372253,559.127258 
	C635.709229,559.087463 635.694519,559.057617 635.654175,552.451294 
	C635.648071,551.451782 635.653320,550.452209 635.653320,548.959961 
M685.831970,499.248047 
	C692.429077,488.385437 687.804382,477.709564 675.501465,475.058014 
	C670.860535,474.057861 666.226990,474.598083 661.590027,474.438660 
	C659.307129,474.360168 658.270935,475.454926 658.279541,477.756226 
	C658.310120,485.907074 658.275940,494.058197 658.277100,502.209198 
	C658.277283,503.784760 658.481812,505.469940 660.466797,505.510773 
	C669.227295,505.691162 678.258179,506.900085 685.831970,499.248047 
z"/>
<path fill="#000000" opacity="1.000000" stroke="none" 
	d="
M502.150269,507.835266 
	C494.985229,521.821106 482.578094,525.385803 468.627350,525.966736 
	C464.803101,526.125977 460.942780,526.263123 457.141937,525.926086 
	C452.404053,525.506104 451.078094,527.464661 451.264557,531.972290 
	C451.574066,539.454529 451.230377,546.961609 451.390656,554.453247 
	C451.463318,557.849731 450.322266,559.320923 446.799377,559.142517 
	C442.812561,558.940552 438.791016,558.884644 434.813904,559.171814 
	C430.092773,559.512695 428.812225,557.369934 428.832764,552.975586 
	C428.959656,525.826904 428.898529,498.677277 428.907227,471.527954 
	C428.908478,467.530762 428.942871,463.533569 428.973145,459.536438 
	C428.990234,457.280762 429.635071,455.608154 432.367798,455.686035 
	C447.820984,456.126343 463.345428,454.370239 478.726746,456.759583 
	C494.720520,459.244080 504.925262,471.300690 505.394501,487.494598 
	C505.593842,494.374207 505.383362,501.136902 502.150269,507.835266 
M451.347931,488.519592 
	C451.351837,493.670441 451.403046,498.821899 451.339050,503.971924 
	C451.308563,506.422546 452.204102,507.699097 454.814941,507.648926 
	C459.299286,507.562683 463.814453,507.914642 468.265503,507.514160 
	C476.486694,506.774414 482.278381,500.681641 482.645233,492.926147 
	C483.123871,482.806641 479.060486,477.238159 469.758636,475.266296 
	C453.137604,471.742920 451.346161,472.936279 451.347931,488.519592 
z"/>
<path fill="#000000" opacity="1.000000" stroke="none" 
	d="
M848.867798,462.972839 
	C849.898376,457.006256 853.022461,455.354706 858.722656,455.505371 
	C874.804626,455.930420 874.742493,455.673950 880.173218,470.851807 
	C890.032654,498.406921 899.992004,525.926331 909.874939,553.473083 
	C910.417114,554.984253 911.340271,556.489685 910.544250,558.915588 
	C903.995178,558.915588 897.252258,559.017029 890.515869,558.852112 
	C888.558533,558.804260 888.127075,556.820557 887.597595,555.225342 
	C885.922180,550.177795 884.124817,545.168274 882.564636,540.085754 
	C881.557922,536.806335 879.893127,535.204529 876.148438,535.310791 
	C867.161194,535.565674 858.158325,535.530396 849.168945,535.312866 
	C845.707520,535.229187 844.071716,536.486206 843.165588,539.759216 
	C841.748230,544.878174 839.810974,549.851379 838.314758,554.951172 
	C837.435974,557.946350 835.893555,559.325867 832.623779,559.201782 
	C827.027161,558.989563 821.416748,559.143188 814.643860,559.143188 
	C826.270874,526.470032 837.502319,494.908325 848.867798,462.972839 
M852.303284,512.545410 
	C851.897705,514.434937 850.598633,516.189575 851.477295,518.508667 
	C859.143372,518.508667 866.844482,518.508667 875.344543,518.508667 
	C871.128784,506.097229 867.114807,494.279663 863.100769,482.462097 
	C862.739990,482.478363 862.379211,482.494659 862.018433,482.510925 
	C858.832764,492.267883 855.647095,502.024841 852.303284,512.545410 
z"/>
<path fill="#000000" opacity="1.000000" stroke="none" 
	d="
M300.721161,490.796631 
	C299.810059,485.230652 299.910889,480.089691 301.269989,475.062408 
	C304.957916,461.420532 315.267700,455.513519 328.088165,453.926086 
	C340.386871,452.403290 352.656097,453.544006 364.335327,458.503082 
	C367.180176,459.711060 368.515381,461.217712 368.397675,464.403992 
	C368.191528,469.983612 368.340149,475.576324 368.340149,482.003906 
	C360.989746,478.495819 354.761627,474.897675 347.627808,473.843170 
	C342.349823,473.062927 337.041046,472.583893 331.839630,474.328461 
	C327.451752,475.800232 324.034363,478.467743 323.511230,483.306091 
	C322.996887,488.063293 326.083038,490.975159 329.854095,493.204620 
	C334.470581,495.933929 339.534637,497.613159 344.564331,499.363739 
	C347.389893,500.347198 350.254059,501.226562 353.050598,502.285400 
	C366.590790,507.411957 372.892517,515.752075 373.460449,527.703003 
	C374.217194,543.627747 365.505463,553.519836 353.640625,557.974915 
	C336.687317,564.340637 319.943634,561.809998 303.593811,555.094727 
	C302.161926,554.506653 300.921631,553.555054 300.911163,551.814087 
	C300.872620,545.392578 300.895844,538.970703 300.895844,531.566162 
	C304.587006,533.531128 307.303925,534.966980 310.011292,536.420715 
	C318.805725,541.142944 328.232025,542.571472 338.049194,541.570068 
	C340.145020,541.356262 342.311920,540.653992 344.188324,539.680176 
	C351.908630,535.673218 352.394501,527.476318 345.211395,522.572021 
	C341.471649,520.018616 337.148590,518.651306 332.886505,517.214111 
	C326.733582,515.139282 320.612549,512.999817 315.005035,509.623871 
	C307.864105,505.324890 302.657074,499.558899 300.721161,490.796631 
z"/>
<path fill="#000000" opacity="1.000000" stroke="none" 
	d="
M175.271942,421.295959 
	C185.997147,410.240967 198.841736,407.129395 213.018799,410.765533 
	C227.009903,414.353943 235.998825,423.630707 239.626144,437.769928 
	C244.840240,458.094330 232.091766,479.107727 212.055634,483.302338 
	C190.364304,487.843384 170.573807,474.825592 166.563950,453.624542 
	C164.269470,441.493103 167.238953,430.935852 175.271942,421.295959 
z"/>
<path fill="#000000" opacity="1.000000" stroke="none" 
	d="
M388.651825,521.999878 
	C388.656219,501.524994 388.768463,481.549103 388.582336,461.575989 
	C388.540924,457.129791 389.723511,455.183258 394.442383,455.580688 
	C398.740509,455.942657 403.091980,455.714966 407.419189,455.670258 
	C409.904633,455.644592 411.121338,456.766785 411.109436,459.251160 
	C411.104675,460.249298 411.166382,461.247620 411.166229,462.245880 
	C411.161835,492.374603 411.053192,522.503967 411.245636,552.631409 
	C411.277344,557.594421 409.932556,559.692749 404.789825,559.191467 
	C401.162231,558.837830 397.463531,558.963745 393.812805,559.166992 
	C389.949524,559.382080 388.520264,557.888672 388.593536,553.959167 
	C388.789001,543.476074 388.655060,532.986755 388.651825,521.999878 
z"/>
</svg>